<svg
  viewBox="0 0 35 36"
  fill="currentColor"
  xmlns="http://www.w3.org/2000/svg"
  id="AddIconSvg"
>
  <path
    d="M32.5 14.3289H21.25V3.07892C21.25 1.69845 20.1305 0.578918 18.75 0.578918H16.25C14.8695 0.578918 13.75 1.69845 13.75 3.07892V14.3289H2.5C1.11953 14.3289 0 15.4485 0 16.8289V19.3289C0 20.7094 1.11953 21.8289 2.5 21.8289H13.75V33.0789C13.75 34.4594 14.8695 35.5789 16.25 35.5789H18.75C20.1305 35.5789 21.25 34.4594 21.25 33.0789V21.8289H32.5C33.8805 21.8289 35 20.7094 35 19.3289V16.8289C35 15.4485 33.8805 14.3289 32.5 14.3289Z"
  />
</svg>
